<svg xmlns="http://www.w3.org/2000/svg" xmlns:xlink="http://www.w3.org/1999/xlink" width="400" height="400" viewBox="0 0 400 400">
<rect data-name="background" width="100%" height="100%" fill="#d8092f"/><g data-name="container" data="container_num:2" fill="#efe5df" transform="translate(61.7085454993385,43.19999999999999) scale(5.576266782720812)"><path xmlns="http://www.w3.org/2000/svg" d="M23.11 55.78L1.69 43.41A3.39 3.39 0 0 1 0 40.48V15.75a3.39 3.39 0 0 1 1.69-2.94L23.11.45a3.39 3.39 0 0 1 3.39 0l21.41 12.37a3.39 3.39 0 0 1 1.69 2.94v24.72a3.39 3.39 0 0 1-1.69 2.94L26.5 55.78a3.39 3.39 0 0 1-3.39 0z"/></g><g data-name="monogram" fill="#b40324" data="id:166" transform="translate(166.22000430956163,112.76502611415592) scale(2.399147596696324)"><path d="M1.4,40l0-1.56l3.8,0l0-23.32l-3.8,0l0-1.56l11.84,0c6.96,0,9.6,2.72,9.6,6.76c0,2.96-1.6,5.52-6.04,6.48l0,0.16c3.48,1.04,5.2,3.28,5.32,7.16c0.04,1.88,0.28,4,1.64,4c0.8,0,1.48-1.32,1.6-1.64l1.4,0.72c-0.28,0.76-1.36,3.16-4.44,3.16c-3.92,0-5.28-3.04-5.4-6.84c-0.16-4.56-1.72-5.84-3.8-5.84l-3.04,0l0,10.76l3.64,0l0,1.56l-12.32,0z M10.08,25.96l2.88,0c3.44,0,4.76-1.56,4.76-5.24c0-3.84-1.28-5.48-4.76-5.48l-2.88,0l0,10.72z"/></g><g data-name="business_name" fill="#d8092f" data="id:180" transform="translate(112.8630923589102,207.91760998941774) scale(0.9746858343411635)"><path d="M2.52,48c-0.32,0-0.52-0.24-0.52-0.52l0-23.96c0-0.28,0.2-0.52,0.52-0.52l9.76,0c3.04,0,5.44,0.76,7.12,2.32c2.48,2.24,3.32,6.48,2.12,9.6c-0.44,1.12-1.2,2.16-2.16,2.92c-0.56,0.44-1.16,0.76-1.76,1.08c1.72,2.72,4.32,8.24,4.32,8.24c0.04,0.08,0.12,0.2,0.12,0.32c0,0.28-0.24,0.52-0.52,0.52l-5.92,0c-0.16,0-0.36-0.12-0.44-0.28l-3.48-7.64c-1.24,0.08-2.2,0.04-3.48,0.04l0,7.36c0,0.28-0.24,0.52-0.52,0.52l-5.16,0z M8.2,34.56c0,0,5.04,0.56,6.8-0.6c0.68-0.44,1.08-1.52,1.08-2.32c-0.04-0.88-0.48-1.8-1.2-2.36c-0.76-0.64-2.64-0.84-3.6-0.84l-3.08,0.08l0,6.04z M38.96,48c-2.4,0-4.6-0.56-6.52-1.68c-1.96-1.12-3.52-2.72-4.68-4.64c-1.12-1.96-1.68-4.2-1.68-6.6c0-2.36,0.56-4.56,1.68-6.52c1.16-1.96,2.68-3.52,4.64-4.64s4.16-1.68,6.56-1.68c2.36,0,4.56,0.56,6.52,1.68s3.52,2.68,4.64,4.64c1.16,1.96,1.72,4.16,1.72,6.52c0,2.4-0.56,4.6-1.72,6.56c-1.12,1.96-2.68,3.52-4.64,4.68c-1.96,1.12-4.16,1.68-6.52,1.68z M39.04,42.24c1.16,0,2.24-0.32,3.2-0.92c1-0.64,1.8-1.48,2.36-2.6c0.6-1.08,0.88-2.32,0.88-3.64c0-1.28-0.28-2.52-0.88-3.6c-0.56-1.08-1.36-1.92-2.36-2.56c-0.96-0.6-2.04-0.92-3.2-0.92c-1.2,0-2.28,0.32-3.28,0.92c-1.04,0.64-1.84,1.48-2.44,2.56c-0.6,1.12-0.88,2.32-0.88,3.6c0,1.32,0.28,2.56,0.88,3.64c0.64,1.08,1.44,1.96,2.44,2.56c1,0.64,2.08,0.96,3.28,0.96z M62.32,48c-0.28,0-0.48-0.24-0.48-0.52l0-18.88l-5.48,0c-0.28,0-0.52-0.2-0.52-0.48l0-4.6c0-0.28,0.24-0.52,0.52-0.52l17.16,0c0.32,0,0.52,0.24,0.52,0.52l0,4.6c0,0.28-0.2,0.48-0.52,0.48l-5.48,0l0,18.88c0,0.28-0.24,0.52-0.52,0.52l-5.2,0z M78.56,48c-0.16,0-0.32-0.08-0.4-0.24c-0.12-0.12-0.12-0.32-0.08-0.48l9.32-23.96c0.08-0.2,0.28-0.32,0.48-0.32l5.36,0c0.2,0,0.4,0.12,0.48,0.32l9.16,23.96c0.04,0.16,0.04,0.32-0.08,0.48c-0.08,0.16-0.24,0.24-0.4,0.24l-5.56,0c-0.2,0-0.4-0.12-0.48-0.32l-1.48-3.68l-9,0.04l-1.48,3.64c-0.08,0.2-0.28,0.32-0.48,0.32l-5.36,0z M87.52,39l5.76,0l-2.88-8.48z M106.64,48c-0.28,0-0.52-0.24-0.52-0.52l0-23.96c0-0.28,0.24-0.52,0.52-0.52l5.2,0c0.28,0,0.52,0.24,0.52,0.52l0,9.84l9.04,0l0-9.84c0-0.28,0.24-0.52,0.52-0.52l5.2,0c0.28,0,0.52,0.24,0.52,0.52l0,23.96c0,0.28-0.24,0.52-0.52,0.52l-5.2,0c-0.28,0-0.52-0.24-0.52-0.52l0-8.6l-9.04,0l0,8.6c0,0.28-0.24,0.52-0.52,0.52l-5.2,0z M142.08,48c-2.16,0-3.72-0.44-5.36-1.32c-1.6-0.88-2.88-2.12-3.76-3.76c-0.88-1.6-1.32-3.52-1.32-5.72l0-14.08c0-0.28,0.24-0.48,0.52-0.48l5.2,0c0.28,0,0.48,0.2,0.48,0.48l0,14.08c0,1.6,0.44,2.84,1.28,3.72s1.6,1.32,3,1.32s2.12-0.44,2.92-1.28c0.8-0.88,1.2-2.16,1.2-3.76l0-14.08c0-0.28,0.24-0.48,0.52-0.48l5.2,0c0.28,0,0.52,0.2,0.52,0.48l0,14.08c0,2.2-0.44,4.12-1.32,5.72c-0.84,1.64-2.12,2.88-3.72,3.76s-3.2,1.32-5.36,1.32z M157,48c-0.28,0-0.52-0.24-0.52-0.52l0-23.96c0-0.28,0.24-0.52,0.52-0.52l9.56,0c2.64,0,4.4,0.56,5.96,1.72c2.16,1.56,3.04,4.52,2.04,7.04c-0.52,1.28-1.4,1.96-2.6,2.6c1.72,0.24,2.8,1.36,3.44,2.16c0.92,1.2,1.4,2.64,1.4,4.32c0,2.2-0.88,4-2.56,5.28c-1.64,1.24-3.88,1.88-6.64,1.88l-10.6,0z M162.36,32.16l3.92,0c0.8,0,1.44-0.16,1.88-0.52c0.4-0.36,0.6-0.84,0.6-1.48c0-0.6-0.2-1.08-0.6-1.4c-0.4-0.36-1-0.52-1.72-0.52l-4.08,0l0,3.92z M162.36,43.08l4.68,0c1.2,0,2.12-0.24,2.8-0.72c0.6-0.44,0.92-1.04,0.92-1.88c0-0.76-0.32-1.32-0.92-1.76c-0.64-0.44-1.52-0.68-2.64-0.68l-4.84,0l0,5.04z"/></g></svg>
